<svg width="33" height="32" viewBox="0 0 33 32" fill="currentColor" xmlns="http://www.w3.org/2000/svg" aria-hidden="true"><path d="M16.5 11.0447C16.721 11.0447 16.8918 10.9643 17.1228 10.7534L20.2065 7.8605C20.4074 7.66965 20.5179 7.46876 20.5179 7.21764C20.5179 6.78572 20.1965 6.45425 19.7344 6.45425C19.4933 6.45425 19.2724 6.57479 19.1116 6.75559L17.9565 7.9509L17.2433 8.83483L17.394 7.23773V3.69197C17.394 3.16965 16.9822 2.73773 16.5 2.73773C16.0078 2.73773 15.596 3.16965 15.596 3.69197V7.23773L15.7467 8.83483L15.1139 8.03126L13.8784 6.75559C13.7177 6.57479 13.4967 6.45425 13.2556 6.45425C12.7936 6.45425 12.4721 6.78572 12.4721 7.21764C12.4721 7.46876 12.5826 7.66965 12.7835 7.8605L15.8672 10.7534C16.0982 10.9643 16.269 11.0447 16.5 11.0447ZM21.6831 13.7165C22.0346 14.058 22.6172 14.058 23.009 13.6663L24.6462 12.029C25.048 11.6373 25.038 11.0647 24.6864 10.7132C24.3549 10.3616 23.7724 10.3616 23.3806 10.7534L21.7333 12.4007C21.3416 12.7824 21.3315 13.375 21.6831 13.7165ZM9.99111 13.6663C10.3828 14.058 10.9654 14.0681 11.307 13.7165C11.6585 13.365 11.6485 12.7824 11.2668 12.4007L9.61945 10.7534C9.22771 10.3616 8.65517 10.3717 8.30361 10.7132C7.95204 11.0547 7.95204 11.6373 8.34378 12.029L9.99111 13.6663ZM21.9442 18.8895C21.9442 15.8962 19.4833 13.4252 16.5 13.4252C13.5168 13.4252 11.0458 15.8962 11.0458 18.8895C11.0458 19.5324 11.1764 20.1451 11.4174 20.7076H21.5826C21.8137 20.1451 21.9442 19.5324 21.9442 18.8895ZM5.8728 19.4018H8.19311C8.74557 19.4018 9.17749 19 9.16745 18.5078C9.1574 18.0156 8.74557 17.6138 8.19311 17.6138H5.8728C5.32035 17.6138 4.90852 18.0156 4.90852 18.5078C4.90852 19 5.33039 19.4018 5.8728 19.4018ZM24.807 19.4018H27.1273C27.6797 19.4018 28.0916 19 28.0916 18.5078C28.0916 18.0156 27.6797 17.6138 27.1273 17.6138H24.807C24.2545 17.6138 23.8226 18.0156 23.8326 18.5078C23.8427 19 24.2545 19.4018 24.807 19.4018ZM4.62727 23.9219H28.3628C28.9152 23.9219 29.3672 23.4799 29.3672 22.9576C29.3672 22.4252 28.9152 21.9933 28.3628 21.9933H4.62727C4.07481 21.9933 3.6228 22.4353 3.6228 22.9576C3.6228 23.4699 4.08486 23.9219 4.62727 23.9219Z"></path></svg>